# xmcd
#
# Track frame offsets:
# 150
# 23265
# 38741
# 57346
# 79501
# 97877
# 114324
# 136996
# 148235
# 165231
# 170719
# 188460
# 216552
# 234989
#
# Disc length: 3448 seconds
#
#
# Revision: 2
# Processed by: cddbd v1.5.2PL0 Copyright (c) Steve Scherf et al.
# Submitted via: FreeRIP 2.96 
#
DISCID=ac0d760e
DTITLE=Dilated Peoples - Neighborhood Watch
DYEAR=2004
DGENRE=Hip-Hop
TTITLE0=Marathon
TTITLE1=Neighborhood Watch
TTITLE2=Tryin' To Breathe
TTITLE3=Caffeine
TTITLE4=Who's Who
TTITLE5=Poisonous (feat. Devin The Dude)
TTITLE6=Reach Us
TTITLE7=Big Business
TTITLE8=Love And War
TTITLE9=1580 (Skit)
TTITLE10=World On Wheels
TTITLE11=Closed Session (feat. Defari, Phil Da Agony and Planet Asia)
TTITLE12=This Way (feat. Kanye West)
TTITLE13=DJ Babu In Deep Concentration
EXTD=
EXTT0=
EXTT1=
EXTT2=
EXTT3=
EXTT4=
EXTT5=
EXTT6=
EXTT7=
EXTT8=
EXTT9=
EXTT10=
EXTT11=
EXTT12=
EXTT13=
PLAYORDER=
